HIERARCHY
ROOT joint_Root
{
	OFFSET 0.0 0.0 0.0
	CHANNELS 6 Xposition Yposition Zposition Zrotation Xrotation Yrotation 
	JOINT Hips
	{
		OFFSET -0.726466 93.3139 -2.00062
		CHANNELS 6 Xposition Yposition Zposition Zrotation Xrotation Yrotation 
		JOINT Spine
		{
			OFFSET 15.7357 0.0 0.0
			CHANNELS 6 Xposition Yposition Zposition Zrotation Xrotation Yrotation 
			JOINT Chest
			{
				OFFSET 8.98455 -0.406207 0.0
				CHANNELS 6 Xposition Yposition Zposition Zrotation Xrotation Yrotation 
				JOINT Neck
				{
					OFFSET 16.3773 0.0 0.0
					CHANNELS 6 Xposition Yposition Zposition Zrotation Xrotation Yrotation 
					JOINT Head
					{
						OFFSET 6.45672 0.0 0.0
						CHANNELS 6 Xposition Yposition Zposition Zrotation Xrotation Yrotation 
						End Site
						{
							OFFSET 0.0 0.0 0.0
						}
					}
				}
				JOINT Shoulder_L
				{
					OFFSET 12.9942 -0.242716 4.98039
					CHANNELS 6 Xposition Yposition Zposition Zrotation Xrotation Yrotation 
					JOINT UpperArm_L
					{
						OFFSET 5.34809 0.0 0.0
						CHANNELS 6 Xposition Yposition Zposition Zrotation Xrotation Yrotation 
						JOINT LowerArm_L
						{
							OFFSET 24.3286 1.87007e-05 0.0
							CHANNELS 6 Xposition Yposition Zposition Zrotation Xrotation Yrotation 
							JOINT Hand_L
							{
								OFFSET 22.2916 0.0 0.0
								CHANNELS 6 Xposition Yposition Zposition Zrotation Xrotation Yrotation 
								End Site
								{
									OFFSET 0.0 0.0 0.0
								}
							}
						}
					}
				}
				JOINT Shoulder_R
				{
					OFFSET 12.9945 -0.242716 -4.98039
					CHANNELS 6 Xposition Yposition Zposition Zrotation Xrotation Yrotation 
					JOINT UpperArm_R
					{
						OFFSET -5.34813 0.0 0.0
						CHANNELS 6 Xposition Yposition Zposition Zrotation Xrotation Yrotation 
						JOINT LowerArm_R
						{
							OFFSET -24.3289 0.000322201 0.0
							CHANNELS 6 Xposition Yposition Zposition Zrotation Xrotation Yrotation 
							JOINT Hand_R
							{
								OFFSET -22.2915 -0.000108084 0.0
								CHANNELS 6 Xposition Yposition Zposition Zrotation Xrotation Yrotation 
								End Site
								{
									OFFSET 0.0 0.0 0.0
								}
							}
						}
					}
				}
			}
		}
		JOINT UpperLeg_L
		{
			OFFSET -2.19248 -6.46944 0.0
			CHANNELS 6 Xposition Yposition Zposition Zrotation Xrotation Yrotation 
			JOINT LowerLeg_L
			{
				OFFSET 39.0811 0.0 -1.23785e-05
				CHANNELS 6 Xposition Yposition Zposition Zrotation Xrotation Yrotation 
				JOINT Foot_L
				{
					OFFSET 40.9854 0.0 -1.26872e-05
					CHANNELS 6 Xposition Yposition Zposition Zrotation Xrotation Yrotation 
					JOINT Toes_L
					{
						OFFSET 11.7543 0.0 0.0
						CHANNELS 6 Xposition Yposition Zposition Zrotation Xrotation Yrotation 
						End Site
						{
							OFFSET 0.0 0.0 0.0
						}
					}
				}
			}
		}
		JOINT UpperLeg_R
		{
			OFFSET -2.19251 6.46944 0.0
			CHANNELS 6 Xposition Yposition Zposition Zrotation Xrotation Yrotation 
			JOINT LowerLeg_R
			{
				OFFSET -39.0811 -0.00228153 -0.0401928
				CHANNELS 6 Xposition Yposition Zposition Zrotation Xrotation Yrotation 
				JOINT Foot_R
				{
					OFFSET -40.9854 0.0 0.0
					CHANNELS 6 Xposition Yposition Zposition Zrotation Xrotation Yrotation 
					JOINT Toes_R
					{
						OFFSET -11.7543 0.0 0.0
						CHANNELS 6 Xposition Yposition Zposition Zrotation Xrotation Yrotation 
						End Site
						{
							OFFSET 0.0 0.0 0.0
						}
					}
				}
			}
		}
	}
}
MOTION
Frames:	9
Frame Time:	0.0333333
0.000000 0.000000 0.000000 0.000000 0.000000 -0.000000 -0.698842 91.015900 541.818000 -92.208500 21.646300 177.381000 15.735700 0.000005 -0.000001 113.828000 83.316500 -115.227000 8.984550 -0.406207 -0.000000 4.546030 5.430040 -3.013080 16.377300 -0.000001 -0.000001 2.182730 4.358160 0.772044 6.456720 -0.000001 -0.000000 4.612750 4.852850 -7.471900 12.994200 -0.242716 4.980390 -89.308100 -1.674190 -67.541600 5.348090 -0.000007 -0.000001 -50.310100 8.589650 -1.466440 24.328600 0.000019 0.000005 4.019280 17.837400 -12.919200 22.291600 -0.000001 0.000005 16.630700 5.251850 1.411190 12.994500 -0.242716 -4.980390 88.189100 6.969040 -75.394800 -5.348130 -0.000001 -0.000004 -49.774400 12.793600 -27.357900 -24.328900 0.000322 -0.000009 1.091820 2.418730 -24.325000 -22.291500 -0.000108 -0.000004 15.922100 5.292680 0.275694 -2.192480 -6.469440 -0.000000 -178.581000 -7.918150 -25.880800 39.081100 -0.000007 -0.000012 -0.004319 0.011234 21.030100 40.985400 -0.000006 -0.000013 5.473580 -2.063070 -55.890000 11.754300 -0.000000 0.000003 -0.005415 -0.065437 -19.239600 -2.192510 6.469440 -0.000001 175.054000 25.713000 -177.944000 -39.081100 -0.002282 -0.040193 -0.137835 0.435336 17.965800 -40.985400 0.000008 0.000006 -4.500590 -4.696490 -72.211400 -11.754300 -0.000006 -0.000006 -0.008830 -0.094676 -20.429200
0.000000 0.000000 0.000000 0.000000 0.000000 -0.000000 -0.787077 90.638900 540.246000 -91.974100 20.962100 177.224000 15.735700 0.000005 -0.000001 115.491000 83.303700 -116.809000 8.984550 -0.406207 -0.000000 4.409410 5.792820 -2.859200 16.377300 -0.000001 -0.000001 1.971200 3.944870 1.013320 6.456720 -0.000001 -0.000000 4.345420 3.966660 -7.716350 12.994200 -0.242716 4.980390 -89.104400 -2.179040 -67.650600 5.348090 -0.000007 -0.000001 -52.156100 4.046560 4.078980 24.328600 0.000019 0.000005 3.119990 14.054700 -12.650100 22.291600 -0.000001 0.000005 22.378600 5.313100 -0.294526 12.994500 -0.242716 -4.980390 88.203300 6.997220 -75.560500 -5.348130 -0.000001 -0.000004 -50.608100 13.179900 -29.080000 -24.328900 0.000322 -0.000009 0.887976 1.784670 -26.488000 -22.291500 -0.000108 -0.000004 15.777500 5.317440 -0.421652 -2.192480 -6.469440 -0.000000 -178.430000 -11.009600 -26.532400 39.081100 -0.000007 -0.000012 -0.085458 0.215396 21.640600 40.985400 -0.000006 -0.000013 -0.766180 -2.393480 -54.155100 11.754300 -0.000000 0.000003 -0.004072 -0.052195 -18.700000 -2.192510 6.469440 -0.000001 174.377000 26.372600 -176.886000 -39.081100 -0.002282 -0.040193 -0.118092 0.368260 18.247800 -40.985400 0.000008 0.000006 -4.699180 -4.542750 -73.091900 -11.754300 -0.000006 -0.000006 -0.007996 -0.088003 -20.156600
0.000000 0.000000 0.000000 0.000000 0.000000 -0.000000 -1.018420 90.206100 538.403000 -91.810000 20.284300 176.856000 15.735700 0.000005 -0.000001 117.528000 83.381700 -118.773000 8.984550 -0.406207 -0.000000 4.059340 6.148970 -2.707110 16.377300 -0.000001 -0.000001 1.761850 3.488220 1.420450 6.456720 -0.000001 -0.000000 4.193160 2.821390 -7.999130 12.994200 -0.242716 4.980390 -88.934000 -2.593400 -67.645700 5.348090 -0.000007 -0.000001 -53.917000 -3.117300 8.561160 24.328600 0.000019 0.000005 2.410900 11.561000 -11.863700 22.291600 -0.000001 0.000005 24.521500 5.345660 -1.250330 12.994500 -0.242716 -4.980390 88.236600 6.962350 -75.749200 -5.348130 -0.000001 -0.000004 -51.165500 14.740500 -30.168000 -24.328900 0.000322 -0.000009 0.885946 1.603380 -28.960600 -22.291500 -0.000108 -0.000004 16.221800 5.332210 -0.849528 -2.192480 -6.469440 -0.000000 -179.135000 -13.370100 -27.913400 39.081100 -0.000007 -0.000012 -0.053459 0.119584 24.086800 40.985400 -0.000006 -0.000013 -2.551890 -2.380610 -52.339700 11.754300 -0.000000 0.000003 -0.004234 -0.053861 -18.767800 -2.192510 6.469440 -0.000001 173.584000 26.861700 -175.899000 -39.081100 -0.002282 -0.040193 -0.082174 0.256355 18.444300 -40.985400 0.000008 0.000006 -4.897310 -4.558810 -73.978900 -11.754300 -0.000006 -0.000006 -0.007625 -0.084947 -20.031800
0.000000 0.000000 0.000000 0.000000 0.000000 -0.000000 -1.358470 89.677800 536.125000 -91.912900 19.918000 176.864000 15.735700 0.000005 -0.000001 120.063000 83.370800 -121.326000 8.984550 -0.406207 -0.000000 3.805220 6.676570 -2.746690 16.377300 -0.000001 -0.000001 1.552000 3.015970 1.768480 6.456720 -0.000001 -0.000000 4.068270 1.738230 -7.909460 12.994200 -0.242716 4.980390 -88.802200 -2.928570 -67.742800 5.348090 -0.000007 -0.000001 -55.445900 -9.704380 12.132500 24.328600 0.000019 0.000005 2.001750 11.099000 -10.290200 22.291600 -0.000001 0.000005 25.154300 5.310840 -0.238200 12.994500 -0.242716 -4.980390 88.243800 6.993160 -75.864800 -5.348130 -0.000001 -0.000004 -51.162800 17.333800 -30.373900 -24.328900 0.000322 -0.000009 0.879357 1.397100 -32.215600 -22.291500 -0.000108 -0.000004 15.990000 5.349340 -1.360100 -2.192480 -6.469440 -0.000000 179.896000 -14.527400 -29.429500 39.081100 -0.000007 -0.000012 0.000424 -0.000764 28.998400 40.985400 -0.000006 -0.000013 -1.876810 -2.264250 -53.621100 11.754300 -0.000000 0.000003 -0.004363 -0.055169 -18.821100 -2.192510 6.469440 -0.000001 172.149000 26.922100 -174.338000 -39.081100 -0.002282 -0.040193 -0.018558 0.065028 18.598200 -40.985400 0.000008 0.000006 -4.993340 -4.679810 -74.957100 -11.754300 -0.000006 -0.000006 -0.007679 -0.085388 -20.049800
0.000000 0.000000 0.000000 0.000000 0.000000 -0.000000 -1.918570 89.152700 533.487000 -92.428500 19.635100 177.089000 15.735700 0.000005 -0.000001 122.316000 83.379600 -123.764000 8.984550 -0.406207 -0.000000 3.539060 7.123220 -3.116050 16.377300 -0.000001 -0.000001 1.241610 2.654320 2.132620 6.456720 -0.000001 -0.000000 4.064800 0.967177 -7.576680 12.994200 -0.242716 4.980390 -88.766200 -3.037610 -67.881500 5.348090 -0.000007 -0.000001 -57.500600 -12.057700 14.059100 24.328600 0.000019 0.000005 1.168200 9.995500 -6.695280 22.291600 -0.000001 0.000005 25.589400 5.267490 0.964956 12.994500 -0.242716 -4.980390 88.150000 7.396600 -75.915000 -5.348130 -0.000001 -0.000004 -50.591700 20.477400 -29.770900 -24.328900 0.000322 -0.000009 2.034640 2.783550 -36.181300 -22.291500 -0.000108 -0.000004 14.322400 5.374460 -2.129150 -2.192480 -6.469440 -0.000000 178.573000 -15.238900 -30.341600 39.081100 -0.000007 -0.000012 -0.007234 0.010801 33.814800 40.985400 -0.000006 -0.000013 -1.134140 -1.265190 -57.227100 11.754300 -0.000000 0.000003 -0.003851 -0.049894 -18.606300 -2.192510 6.469440 -0.000001 170.022000 26.182600 -172.923000 -39.081100 -0.002282 -0.040193 0.031984 -0.081885 19.291000 -40.985400 0.000008 0.000006 -6.003950 -5.006380 -75.229900 -11.754300 -0.000006 -0.000006 -0.007556 -0.084369 -20.008200
0.000000 0.000000 0.000000 0.000000 0.000000 -0.000000 -2.598000 88.707600 530.466000 -92.898300 19.214200 177.938000 15.735700 0.000005 -0.000001 123.131000 83.142700 -124.707000 8.984550 -0.406207 -0.000000 3.852650 7.539540 -3.405830 16.377300 -0.000001 -0.000001 0.804585 2.202970 2.236340 6.456720 -0.000001 -0.000000 3.911290 0.422994 -6.966760 12.994200 -0.242716 4.980390 -88.773500 -3.069900 -68.209500 5.348090 -0.000007 -0.000001 -61.184500 -10.980300 14.128900 24.328600 0.000019 0.000005 0.455026 9.617240 -2.724410 22.291600 -0.000001 0.000005 24.501900 5.221120 2.199600 12.994500 -0.242716 -4.980390 88.132000 7.476980 -75.929500 -5.348130 -0.000001 -0.000004 -50.162000 24.020600 -28.789800 -24.328900 0.000322 -0.000009 4.178650 5.024920 -39.834300 -22.291500 -0.000108 -0.000004 13.189800 5.405180 -3.107790 -2.192480 -6.469440 -0.000000 177.711000 -14.623500 -29.675500 39.081100 -0.000007 -0.000012 -0.046940 0.060574 37.773800 40.985400 -0.000006 -0.000013 -0.614714 -1.353120 -61.289200 11.754300 -0.000000 0.000003 -0.002592 -0.035908 -18.037000 -2.192510 6.469440 -0.000001 167.434000 24.337300 -171.748000 -39.081100 -0.002282 -0.040193 0.014985 -0.029274 21.728800 -40.985400 0.000008 0.000006 -8.162390 -5.257750 -73.201700 -11.754300 -0.000006 -0.000006 -0.496253 -0.619275 -21.624300
0.000000 0.000000 0.000000 0.000000 0.000000 -0.000000 -3.343730 88.487400 527.228000 -92.756700 18.913000 178.519000 15.735700 0.000005 -0.000001 123.897000 83.164200 -125.335000 8.984550 -0.406207 -0.000000 3.707820 7.665730 -3.124300 16.377300 -0.000001 -0.000001 0.758465 2.072730 2.386820 6.456720 -0.000001 -0.000000 4.015530 0.152342 -6.780390 12.994200 -0.242716 4.980390 -88.971500 -2.535670 -67.912100 5.348090 -0.000007 -0.000001 -65.004100 -8.316960 13.798700 24.328600 0.000019 0.000005 0.191929 11.636200 -0.952326 22.291600 -0.000001 0.000005 19.525300 5.170940 3.452390 12.994500 -0.242716 -4.980390 88.125700 7.503750 -75.931800 -5.348130 -0.000001 -0.000004 -49.317300 28.777800 -27.753700 -24.328900 0.000322 -0.000009 5.471200 6.126490 -41.912500 -22.291500 -0.000108 -0.000004 12.937800 5.433730 -4.068280 -2.192480 -6.469440 -0.000000 177.294000 -14.127200 -28.141000 39.081100 -0.000007 -0.000012 -0.098324 0.115792 40.336600 40.985400 -0.000006 -0.000013 0.006365 -1.516790 -64.909400 11.754300 -0.000000 0.000003 -0.001463 -0.021780 -17.462400 -2.192510 6.469440 -0.000001 165.872000 22.038500 -172.028000 -39.081100 -0.002282 -0.040193 -0.030602 0.070100 25.816200 -40.985400 0.000008 0.000006 -9.143000 -6.631950 -68.740900 -11.754300 -0.000006 -0.000006 -2.470170 -2.467570 -26.031600
0.000000 0.000000 0.000000 0.000000 0.000000 -0.000000 -4.069670 88.576800 524.027000 -92.326800 18.332900 178.808000 15.735700 0.000005 -0.000001 123.871000 83.397000 -125.071000 8.984550 -0.406207 -0.000000 3.301430 7.398610 -2.614910 16.377300 -0.000001 -0.000001 0.878944 1.999840 2.506890 6.456720 -0.000001 -0.000000 4.179700 0.064336 -6.356920 12.994200 -0.242716 4.980390 -89.117600 -2.123220 -67.425200 5.348090 -0.000007 -0.000001 -69.740200 -3.981020 12.718700 24.328600 0.000019 0.000005 0.309250 15.045400 -1.188870 22.291600 -0.000001 0.000005 12.962700 5.184180 3.100300 12.994500 -0.242716 -4.980390 88.111500 7.449050 -75.730400 -5.348130 -0.000001 -0.000004 -49.464600 33.219700 -26.408400 -24.328900 0.000322 -0.000009 6.053470 6.756270 -42.037900 -22.291500 -0.000108 -0.000004 11.591600 5.445660 -4.483720 -2.192480 -6.469440 -0.000000 177.083000 -13.700700 -25.883200 39.081100 -0.000007 -0.000012 -0.148775 0.170884 41.044000 40.985400 -0.000006 -0.000013 0.689827 -1.602260 -67.584700 11.754300 -0.000000 0.000003 -0.001120 -0.017105 -17.272400 -2.192510 6.469440 -0.000001 165.772000 18.499100 -174.091000 -39.081100 -0.002282 -0.040193 0.022101 -0.030208 31.900600 -40.985400 0.000008 0.000006 -9.527140 -10.429200 -64.493200 -11.754300 -0.000006 -0.000006 -0.051703 -0.303782 -29.090900
0.000000 0.000000 0.000000 0.000000 0.000000 -0.000000 -4.681780 88.875200 520.972000 -91.990500 16.830900 179.097000 15.735700 0.000005 -0.000001 121.997000 83.699900 -122.992000 8.984550 -0.406207 -0.000000 2.997070 6.711320 -2.164960 16.377300 -0.000001 -0.000001 0.875184 1.523410 2.677840 6.456720 -0.000001 -0.000000 4.400470 -0.105666 -5.726790 12.994200 -0.242716 4.980390 -89.222900 -1.894500 -67.691600 5.348090 -0.000007 -0.000001 -74.791700 1.835110 10.839100 24.328600 0.000019 0.000005 0.959118 17.147300 -3.248740 22.291600 -0.000001 0.000005 7.529220 5.235430 1.798120 12.994500 -0.242716 -4.980390 88.141000 7.107530 -75.301600 -5.348130 -0.000001 -0.000004 -52.003100 35.936400 -23.512000 -24.328900 0.000322 -0.000009 7.303450 8.505440 -40.915800 -22.291500 -0.000108 -0.000004 9.756270 5.446470 -4.510630 -2.192480 -6.469440 -0.000000 176.872000 -12.376400 -22.950600 39.081100 -0.000007 -0.000012 -0.162601 0.191863 40.281200 40.985400 -0.000006 -0.000013 1.195630 -2.031730 -69.418900 11.754300 -0.000000 0.000003 -0.000355 -0.005783 -16.812300 -2.192510 6.469440 -0.000001 166.570000 14.810600 -177.381000 -39.081100 -0.002282 -0.040193 0.101448 -0.120775 39.104700 -40.985400 0.000008 0.000006 -6.825680 -15.252500 -57.421300 -11.754300 -0.000006 -0.000006 -0.071557 -0.367631 -31.801800
